# xmcd CD database file
#
# Track frame offsets:
#	150
#	10257
#	24759
#	35868
#	55506
#	68714
#	86558
#	97230
#	112446
#	124704
#	142046
#	153762
#	170385
#	181405
#
# Disc length: 2615 seconds
#
# Revision: 0
# Processed by: cddbd v1.5.2PL0 Copyright (c) Steve Scherf et al.
# Submitted via: CDex 1.70beta2
#
DISCID=ba0a350e
DTITLE=String of Pearls - 14 Festival Favorites
DYEAR=1997
DGENRE=Jazz
TTITLE0=Too Close For Comfort
TTITLE1=Makin' Whoopee
TTITLE2=Moondance
TTITLE3=I'm Glad There Is You
TTITLE4=You and the Night and the Music
TTITLE5=Spring Can REally Hang You Up The Most
TTITLE6=I've Got The World On A String
TTITLE7=George On My Mind
TTITLE8=Tangerine
TTITLE9=Didn't We
TTITLE10='S Wonderful
TTITLE11=A Day In The Life Of A Fool
TTITLE12=Orange Colored Sky
TTITLE13=Do Nothing 'Till You Hear From Me
EXTD=YEAR: 1997
EXTT0=
EXTT1=
EXTT2=
EXTT3=
EXTT4=
EXTT5=
EXTT6=
EXTT7=
EXTT8=
EXTT9=
EXTT10=
EXTT11=
EXTT12=
EXTT13=
PLAYORDER=
